# xmcd CD database file
#
# Track frame offsets:
#	150
#	23467
#	40407
#	62500
#	91440
#	114373
#	129898
#	152090
#	169989
#	203816
#	220899
#	242325
#
# Disc length: 3550 seconds
#
# Revision: 0
# Processed by: cddbd v1.5.2PL0 Copyright (c) Steve Scherf et al.
# Submitted via: CDex 1.72
#
DISCID=940ddc0c
DTITLE=Celia Lawley - Wildly Amazed
DYEAR=2001
DGENRE=Country
TTITLE0=Just Like That
TTITLE1=I Send You All My Love
TTITLE2=A Billion Lights
TTITLE3=Be My Man
TTITLE4=Fly again
TTITLE5=How Much I Love You
TTITLE6=Now And Then
TTITLE7=EraseMy Mind
TTITLE8=Talk To Me
TTITLE9=New In Blue
TTITLE10=More Than a Dream
TTITLE11=Grandpa Red
EXTD=YEAR: 2001
EXTT0=
EXTT1=
EXTT2=
EXTT3=
EXTT4=
EXTT5=
EXTT6=
EXTT7=
EXTT8=
EXTT9=
EXTT10=
EXTT11=
PLAYORDER=
